<svg xmlns="http://www.w3.org/2000/svg" xmlns:svg="http://www.w3.org/2000/svg" id="svg6838" version="1.1" viewBox="0 0 512 512"><metadata id="metadata6844"/><title id="title6833">djv-app-icon-512</title><g id="Layer_2" data-name="Layer 2" style="fill:#000;fill-opacity:1"><g id="icon_designs.00" data-name="icon designs.00" style="fill:#000;fill-opacity:1"><path id="djv-app-icon-512" d="M512,256c0,141.38-114.62,256-256,256S0,397.38,0,256,114.62,0,256,0,512,114.62,512,256ZM343.11,200.41,398.29,187a45.37,45.37,0,0,0,30.36-63.23A127.37,127.37,0,0,0,328.38,51a45.36,45.36,0,0,0-50.75,48.41L282,156A49.61,49.61,0,0,0,343.11,200.41ZM278.89,39.34a22.89,22.89,0,1,0-45.78,0c0,9.7,9.22,19.67,16.3,29.94a8,8,0,0,0,13.18,0C269.67,59,278.89,49,278.89,39.34ZM469.13,210.82A22.89,22.89,0,0,0,455,167.28c-9.22,3-15.85,14.84-23.43,24.75a8,8,0,0,0,4.07,12.54C447.58,208.13,459.91,213.82,469.13,210.82ZM364.83,444.74a22.89,22.89,0,0,0,37-26.92c-5.7-7.84-19-10.49-30.78-14.63a8,8,0,0,0-10.67,7.75C360.73,423.41,359.13,436.89,364.83,444.74Zm-254.7-26.92a22.89,22.89,0,0,0,37,26.92c5.7-7.85,4.1-21.33,4.41-33.8a8,8,0,0,0-10.67-7.75C129.15,407.33,115.83,410,110.13,417.82ZM57,167.28a22.89,22.89,0,0,0-14.15,43.54c9.22,3,21.55-2.69,33.51-6.25A8,8,0,0,0,80.45,192C72.87,182.12,66.24,170.27,57,167.28ZM335.79,321.66,365.57,370a45.37,45.37,0,0,0,69.52,9.33,127.34,127.34,0,0,0,38.29-117.86,45.36,45.36,0,0,0-61.72-33.31l-52.51,21.6A49.6,49.6,0,0,0,335.79,321.66ZM218.21,352.17l-36.78,43.27a45.37,45.37,0,0,0,12.61,69,127.36,127.36,0,0,0,123.93,0,45.38,45.38,0,0,0,12.6-69L293.8,352.18A49.6,49.6,0,0,0,218.21,352.17ZM152.85,249.78l-52.51-21.61a45.36,45.36,0,0,0-61.72,33.31A127.34,127.34,0,0,0,76.91,379.34,45.37,45.37,0,0,0,146.43,370l29.78-48.34A49.6,49.6,0,0,0,152.85,249.78Zm77.2-93.8,4.32-56.62A45.37,45.37,0,0,0,183.61,51,127.37,127.37,0,0,0,83.35,123.79,45.37,45.37,0,0,0,113.71,187l55.18,13.39A49.61,49.61,0,0,0,230.05,156ZM256,186.88a17.92,17.92,0,1,0,17.92,17.92A17.92,17.92,0,0,0,256,186.88Zm65.73,47.76a17.91,17.91,0,1,0-11.5,22.58A17.91,17.91,0,0,0,321.73,234.64Zm-25.1,77.28a17.92,17.92,0,1,0-25-4A17.92,17.92,0,0,0,296.63,311.92Zm-81.26,0a17.92,17.92,0,1,0-4-25A17.91,17.91,0,0,0,215.37,311.92Zm-25.1-77.28a17.91,17.91,0,1,0,22.57-11.5A17.92,17.92,0,0,0,190.27,234.64Z" style="fill:#000;fill-opacity:1"/></g></g></svg>