<svg xmlns="http://www.w3.org/2000/svg" xmlns:svg="http://www.w3.org/2000/svg" id="svg4562" version="1.1" viewBox="0 0 32 32"><metadata id="metadata4568"/><title id="title4557">djv-app-icon-32</title><g id="Layer_2" data-name="Layer 2" style="fill:#000;fill-opacity:1"><g id="icon_designs.00" data-name="icon designs.00" style="fill:#000;fill-opacity:1"><path id="djv-app-icon-32" d="M32,16A16,16,0,1,1,16,0,16,16,0,0,1,32,16ZM21.44,12.53l3.45-.84a2.84,2.84,0,0,0,1.9-3.95,7.85,7.85,0,0,0-2.54-3.09,7.94,7.94,0,0,0-3.73-1.47,2.85,2.85,0,0,0-3.17,3l.27,3.54A3.11,3.11,0,0,0,21.44,12.53Zm-4-10.07a1.43,1.43,0,1,0-2.86,0c0,.6.58,1.23,1,1.87a.5.5,0,0,0,.82,0C16.85,3.69,17.43,3.06,17.43,2.46ZM29.32,13.18a1.43,1.43,0,0,0-.88-2.73c-.58.19-1,.93-1.47,1.55a.51.51,0,0,0,.26.79A4.18,4.18,0,0,0,29.32,13.18ZM22.8,27.8a1.44,1.44,0,0,0,2.32-1.69c-.36-.49-1.19-.65-1.93-.91a.49.49,0,0,0-.66.48A4.22,4.22,0,0,0,22.8,27.8ZM6.88,26.11A1.44,1.44,0,0,0,9.2,27.8a4.22,4.22,0,0,0,.27-2.12.49.49,0,0,0-.66-.48C8.07,25.46,7.24,25.62,6.88,26.11ZM3.56,10.45a1.43,1.43,0,0,0-.88,2.73,4.18,4.18,0,0,0,2.09-.39A.51.51,0,0,0,5,12C4.55,11.38,4.14,10.64,3.56,10.45ZM21,20.1l1.86,3a2.84,2.84,0,0,0,4.34.58,7.94,7.94,0,0,0,2.16-3.37,8,8,0,0,0,.24-4,2.84,2.84,0,0,0-3.86-2.08l-3.28,1.35A3.09,3.09,0,0,0,21,20.1ZM13.64,22l-2.3,2.71A2.84,2.84,0,0,0,12.13,29a8,8,0,0,0,7.74,0,2.84,2.84,0,0,0,.79-4.31L18.36,22A3.09,3.09,0,0,0,13.64,22Zm-4.09-6.4L6.27,14.26a2.84,2.84,0,0,0-3.86,2.08,8,8,0,0,0,.24,4,7.94,7.94,0,0,0,2.16,3.37,2.84,2.84,0,0,0,4.34-.58l1.86-3A3.09,3.09,0,0,0,9.55,15.61Zm4.83-5.86.27-3.54a2.85,2.85,0,0,0-3.17-3A7.94,7.94,0,0,0,7.75,4.65,7.85,7.85,0,0,0,5.21,7.74a2.84,2.84,0,0,0,1.9,3.95l3.45.84A3.11,3.11,0,0,0,14.38,9.75ZM16,11.68a1.5,1.5,0,1,0,1.5,1.5A1.5,1.5,0,0,0,16,11.68Zm3,1.83a1.5,1.5,0,1,0,1.5,1.5A1.5,1.5,0,0,0,19,13.51Zm-1.16,3.58a1.5,1.5,0,1,0,1.5,1.5A1.5,1.5,0,0,0,17.88,17.09Zm-3.76,0a1.5,1.5,0,1,0,1.5,1.5A1.5,1.5,0,0,0,14.12,17.09ZM13,13.51a1.5,1.5,0,1,0,1.5,1.5A1.5,1.5,0,0,0,13,13.51Z" style="fill:#000;fill-opacity:1"/></g></g></svg>