<svg xmlns="http://www.w3.org/2000/svg" xmlns:svg="http://www.w3.org/2000/svg" id="svg5131" version="1.1" viewBox="0 0 64 64"><metadata id="metadata5137"/><title id="title5126">djv-app-icon-64</title><g id="Layer_2" data-name="Layer 2" style="fill:#000;fill-opacity:1"><g id="icon_designs.00" data-name="icon designs.00" style="fill:#000;fill-opacity:1"><path id="djv-app-icon-64" d="M64,32A32,32,0,1,1,32,0,32,32,0,0,1,64,32ZM42.89,25.05l6.9-1.67a5.68,5.68,0,0,0,3.79-7.91,15.88,15.88,0,0,0-12.53-9.1,5.68,5.68,0,0,0-6.35,6.05l.54,7.08A6.21,6.21,0,0,0,42.89,25.05Zm-8-20.13a2.86,2.86,0,1,0-5.72,0c0,1.21,1.15,2.46,2,3.74a1,1,0,0,0,1.64,0C33.71,7.38,34.86,6.13,34.86,4.92ZM58.64,26.35a2.86,2.86,0,1,0-1.77-5.44c-1.15.37-2,1.86-2.93,3.09a1,1,0,0,0,.51,1.57C56,26,57.49,26.73,58.64,26.35Zm-13,29.24a2.86,2.86,0,0,0,4.63-3.36c-.71-1-2.37-1.31-3.84-1.83a1,1,0,0,0-1.34,1C45.09,52.93,44.89,54.61,45.6,55.59ZM13.77,52.23a2.86,2.86,0,0,0,4.63,3.36c.71-1,.51-2.66.55-4.22a1,1,0,0,0-1.34-1C16.14,50.92,14.48,51.25,13.77,52.23ZM7.13,20.91a2.86,2.86,0,1,0-1.77,5.44c1.15.38,2.69-.33,4.19-.78A1,1,0,0,0,10.06,24C9.11,22.77,8.28,21.28,7.13,20.91ZM42,40.21l3.73,6a5.67,5.67,0,0,0,8.69,1.17,16,16,0,0,0,4.78-14.74,5.66,5.66,0,0,0-7.71-4.16l-6.57,2.7A6.21,6.21,0,0,0,42,40.21ZM27.28,44l-4.6,5.41a5.66,5.66,0,0,0,1.57,8.62,15.88,15.88,0,0,0,15.5,0,5.66,5.66,0,0,0,1.57-8.62L36.72,44A6.2,6.2,0,0,0,27.28,44Zm-8.17-12.8-6.57-2.7a5.66,5.66,0,0,0-7.71,4.16A16,16,0,0,0,9.61,47.42a5.67,5.67,0,0,0,8.69-1.17l3.73-6A6.21,6.21,0,0,0,19.11,31.22ZM28.76,19.5l.54-7.08a5.68,5.68,0,0,0-6.35-6,15.88,15.88,0,0,0-12.53,9.1,5.68,5.68,0,0,0,3.79,7.91l6.9,1.67A6.21,6.21,0,0,0,28.76,19.5ZM32,23.36a2.24,2.24,0,1,0,2.24,2.24A2.24,2.24,0,0,0,32,23.36Zm8.22,6a2.24,2.24,0,1,0-1.44,2.82A2.25,2.25,0,0,0,40.22,29.33ZM37.08,39a2.24,2.24,0,1,0-3.13-.5A2.24,2.24,0,0,0,37.08,39ZM26.92,39a2.24,2.24,0,1,0-.49-3.13A2.23,2.23,0,0,0,26.92,39Zm-3.14-9.66a2.24,2.24,0,1,0,2.83-1.44A2.23,2.23,0,0,0,23.78,29.33Z" style="fill:#000;fill-opacity:1"/></g></g></svg>